PathFileType	4	(X/Y/Z)	C:\Users\Basilio\Documents\Thesis Gigler\squatting_fais\c3dfiles\036\SJ_pre3\markers_experimental.trc
DataRate	CameraRate	NumFrames	NumMarkers	Units	OrigDataRate	OrigDataStartFrame	OrigNumFrames
200.000000	200.000000	4	61	mm	200.000000	0	2099
Frame#	Time	FHD			LBHD			RBHD			C7			T10			CLAV			LSHO			LUUPA			LMUPA			LDUPA			LLEP			LMEP			LRAD			LUL			LRFIN			RSHO			RUPA1			RMUPA			RDUPA			RLEP			RMEP			RRAD			RUL			RUFIN			LASI			RASI			USACR			LSACR			RSACR			LTHI1			LTHI2			LTHI3			LTHI4			LLFC			LMFC			LTIB1			LTIB2			LTIB3			LTIB4			LLMAL			LMMAL			LHEE			LMT1			LMT2			LMT5			RTHI			RTHI2			RTHI3			RTHI4			RLFC			RMFC			RTIB1			RTIB2			RTIB3			RTIB4			RLMAL			RMMAL			RHEE			RMT1			RMT2			RMT5			
		X1	Y1	Z1	X2	Y2	Z2	X3	Y3	Z3	X4	Y4	Z4	X5	Y5	Z5	X6	Y6	Z6	X7	Y7	Z7	X8	Y8	Z8	X9	Y9	Z9	X10	Y10	Z10	X11	Y11	Z11	X12	Y12	Z12	X13	Y13	Z13	X14	Y14	Z14	X15	Y15	Z15	X16	Y16	Z16	X17	Y17	Z17	X18	Y18	Z18	X19	Y19	Z19	X20	Y20	Z20	X21	Y21	Z21	X22	Y22	Z22	X23	Y23	Z23	X24	Y24	Z24	X25	Y25	Z25	X26	Y26	Z26	X27	Y27	Z27	X28	Y28	Z28	X29	Y29	Z29	X30	Y30	Z30	X31	Y31	Z31	X32	Y32	Z32	X33	Y33	Z33	X34	Y34	Z34	X35	Y35	Z35	X36	Y36	Z36	X37	Y37	Z37	X38	Y38	Z38	X39	Y39	Z39	X40	Y40	Z40	X41	Y41	Z41	X42	Y42	Z42	X43	Y43	Z43	X44	Y44	Z44	X45	Y45	Z45	X46	Y46	Z46	X47	Y47	Z47	X48	Y48	Z48	X49	Y49	Z49	X50	Y50	Z50	X51	Y51	Z51	X52	Y52	Z52	X53	Y53	Z53	X54	Y54	Z54	X55	Y55	Z55	X56	Y56	Z56	X57	Y57	Z57	X58	Y58	Z58	X59	Y59	Z59	X60	Y60	Z60	X61	Y61	Z61	

1	0	-164.3781280517578	1539.787963867188	-938.6293945312502	-316.8021240234376	1477.960083007813	-1021.748718261719	-285.7446289062501	1493.402587890625	-873.1392822265627	-358.8937377929688	1365.630126953125	-973.3374633789065	-364.2769470214844	1059.314331054688	-961.7042236328127	-211.3717346191407	1311.033569335938	-952.4193115234377	-253.1273956298829	1349.409301757813	-1101.443725585938	-296.5065002441407	1215.86328125	-1229.437255859375	-261.0393981933594	1180.786010742188	-1227.921630859375	-304.7571716308594	1154.43896484375	-1261.373291015625	-304.5983581542969	1098.512329101563	-1274.136108398438	-362.3959045410157	1086.94384765625	-1240.042846679688	-185.2519989013672	901.7078857421877	-1220.154663085938	-219.1726074218751	918.5865478515627	-1161.377319335938	-189.8640899658203	863.1240234375002	-1132.392822265625	-274.8023681640626	1349.9619140625	-807.275085449219	-323.0721435546876	1234.303100585938	-691.6629028320314	-282.0824890136719	1207.05322265625	-686.6886596679689	-319.7290954589844	1176.171264648438	-652.7703857421876	-310.4021301269532	1108.42236328125	-627.8671875000001	-365.4097595214844	1076.664672851563	-671.8076782226564	-219.7644653320313	930.2022705078127	-740.0148925781251	-179.2330932617188	920.3886718750002	-687.8830566406251	-190.5413360595703	885.9985351562502	-778.0521240234377	-173.0101470947266	871.9276123046877	-1078.6845703125	-189.8776092529297	880.5556640625002	-811.0817871093752	-367.4664306640626	976.0813598632815	-962.4631958007815	-386.0559692382814	949.570739746094	-988.3284301757815	-390.5970458984376	953.6912841796877	-934.0132446289065	-267.4850463867188	745.8725585937501	-1158.718505859375	-247.8889465332032	663.9368286132814	-1158.65673828125	-204.1620483398438	662.0704956054689	-1139.15771484375	-283.8622436523438	616.3854370117189	-1158.242919921875	-342.4737243652344	468.2460327148439	-1143.718139648438	-339.4429321289063	422.3094177246095	-997.4926757812502	-277.8812866210938	284.4383544921876	-1085.16650390625	-296.8834533691407	251.1788787841797	-1164.7216796875	-275.2868041992188	243.1116180419922	-1124.911743164063	-278.2346496582032	160.2529296875	-1105.222045898438	-326.5666198730469	83.4310989379883	-1169.464599609375	-305.9675598144532	81.02188873291017	-1086.892456054688	-377.7345275878907	55.84217071533205	-1137.379638671875	-188.1222381591797	53.32167053222658	-1105.282592773438	-175.0318450927735	53.84939575195314	-1152.1689453125	-214.5592346191407	34.85937118530274	-1203.270874023438	-335.5025329589844	709.0196533203126	-748.2210693359376	-301.9570007324219	651.8627319335939	-738.7294311523439	-269.5665588378907	653.0244750976564	-736.6519775390626	-331.8383483886719	574.8154296875001	-748.0102539062501	-331.8485107421876	461.3179321289064	-752.5842285156251	-301.1592712402344	438.8112792968751	-896.1152954101565	-287.8638305664063	307.0737915039063	-772.4049072265627	-357.1646118164063	236.3580780029297	-720.1525268554689	-313.0653381347657	232.8357696533204	-735.7241210937501	-301.2770996093751	179.8370208740235	-760.0721435546876	-372.4533996582032	83.27086639404298	-733.2454833984376	-334.0371398925782	83.70034027099611	-807.2867431640627	-412.2366027832032	53.53221130371095	-771.7683715820315	-213.9593811035157	52.6819534301758	-767.0614013671876	-220.3037414550782	57.61630630493165	-716.8545532226564	-262.2287902832032	34.27184677124024	-674.8087768554689	
2	0.005	-164.408432006836	1539.7919921875	-938.7357177734377	-316.8623352050782	1477.998413085938	-1021.768615722656	-285.8813476562501	1493.39111328125	-873.1888427734377	-358.9681091308594	1365.66162109375	-973.3898925781252	-364.3175659179688	1059.289794921875	-961.722106933594	-211.4519195556641	1311.056640625	-952.487487792969	-253.1199340820313	1349.408081054688	-1101.476318359375	-296.6159973144532	1215.816528320313	-1229.461547851563	-261.1474304199219	1180.784057617188	-1227.958740234375	-304.9388732910157	1154.467895507813	-1261.414184570313	-304.7662658691407	1098.483764648438	-1274.18408203125	-362.4479675292969	1086.884521484375	-1240.041259765625	-185.4013061523438	901.6789550781252	-1220.163940429688	-219.2624053955079	918.5686645507815	-1161.428466796875	-189.9831237792969	863.1279296875002	-1132.357788085938	-274.8239135742188	1349.951904296875	-807.3122558593752	-323.1450195312501	1234.331298828125	-691.6807861328126	-282.0816650390626	1207.064819335938	-686.7514648437501	-319.7751464843751	1176.196411132813	-652.8100585937501	-310.4708862304688	1108.46044921875	-627.8649902343751	-365.4083557128907	1076.6943359375	-671.8379516601564	-219.7878875732422	930.233581542969	-740.0274658203126	-179.3001861572266	920.393005371094	-687.8818969726564	-190.5909423828125	885.9672851562502	-778.020446777344	-173.1576538085938	871.974548339844	-1078.711303710938	-190.0080261230469	880.5972290039065	-811.095886230469	-367.4861755371094	976.0496215820315	-962.4351806640627	-386.1449279785157	949.5487060546877	-988.3209228515627	-390.706268310547	953.6751708984377	-934.008972167969	-267.4584655761719	745.9013671875001	-1158.72998046875	-247.9155578613282	663.9271850585939	-1158.630249023438	-204.2546081542969	662.1087646484376	-1139.160400390625	-283.9035644531251	616.4350585937501	-1158.258911132813	-343.0388793945313	468.4241638183595	-1143.836059570313	-339.4379272460938	422.2886047363282	-997.4216918945315	-277.8896179199219	284.3855590820313	-1085.189819335938	-296.9253845214844	251.1714477539063	-1164.6953125	-275.2866210937501	243.1113281250001	-1124.884765625	-278.2689819335938	160.2154846191407	-1105.183715820313	-326.5181884765626	83.43614959716798	-1169.453979492188	-306.0191650390626	81.05264282226564	-1086.904296875	-377.7656250000001	55.82609939575197	-1137.4091796875	-188.1044158935547	53.33903121948244	-1105.3095703125	-175.0695037841797	53.89538574218751	-1152.181274414063	-214.5652923583985	34.82341384887696	-1203.268920898438	-335.5348205566407	709.0092163085939	-748.1941528320314	-301.9919433593751	651.8680419921876	-738.7163085937501	-269.6458740234376	653.0570068359376	-736.6217651367189	-331.9504699707032	574.6466674804689	-748.1036987304689	-331.8632202148438	461.3439025878907	-752.5665893554689	-301.0929565429688	438.8496704101564	-896.1243896484377	-287.8638305664063	307.0737915039063	-772.4049072265627	-357.1889648437501	236.3875122070313	-720.1727905273439	-313.0927429199219	232.8356323242188	-735.7473754882814	-301.2914428710938	179.8143157958985	-760.1300048828126	-372.4354553222657	83.27607727050783	-733.2834472656251	-332.7941589355469	83.30177307128908	-807.4368286132815	-412.1612243652345	53.4983253479004	-771.843933105469	-213.945053100586	52.68713378906251	-767.0669555664064	-220.2605895996094	57.62403106689455	-716.8433227539064	-262.2354736328126	34.28102493286134	-674.8314819335939	
3	0.01	-164.5060729980469	1539.808471679688	-938.8260498046877	-317.0219421386719	1477.957641601563	-1021.787231445313	-285.9386901855469	1493.390258789063	-873.2373657226565	-359.0423278808594	1365.630737304688	-973.4479980468752	-364.3961791992188	1059.289794921875	-961.7431640625002	-211.518783569336	1311.014526367188	-952.5322265625002	-253.2436065673829	1349.357421875	-1101.515625	-296.7873535156251	1215.830322265625	-1229.497680664063	-261.2734375000001	1180.752197265625	-1227.982666015625	-305.0227661132813	1154.400146484375	-1261.419799804688	-304.9267883300782	1098.484741210938	-1274.20458984375	-362.9809265136719	1087.2529296875	-1239.953247070313	-185.5166168212891	901.6719360351565	-1220.188110351563	-219.4252929687501	918.5625000000002	-1161.441162109375	-190.0162506103516	863.1516113281252	-1132.39892578125	-274.8976745605469	1350.013427734375	-807.3371582031252	-323.2299194335938	1234.3779296875	-691.7261352539064	-282.1116943359376	1207.08056640625	-686.7880859375001	-319.8236999511719	1176.253051757813	-652.7953491210939	-310.6108398437501	1108.507568359375	-627.8679199218751	-365.5035095214844	1076.728515625	-671.8546142578126	-219.8744201660157	930.1979980468752	-740.0660400390626	-179.3270263671875	920.4490966796877	-687.9391479492189	-190.6477966308594	886.006286621094	-778.047302246094	-173.2302703857422	872.0090332031252	-1078.673583984375	-190.0931243896485	880.6380004882815	-811.1284179687502	-367.5847473144532	976.0466308593752	-962.4547119140627	-386.1715087890626	949.518493652344	-988.2849731445315	-390.8345031738282	953.6262817382815	-933.9663085937502	-267.6497497558594	745.8436279296876	-1158.69873046875	-247.9542846679688	663.9448852539064	-1158.61181640625	-204.3430633544922	662.0840454101564	-1139.151977539063	-283.9870910644532	616.3849487304689	-1158.279663085938	-343.0682373046876	468.4299316406251	-1143.851684570313	-339.4232788085938	422.2695617675782	-997.4395751953127	-277.9059143066407	284.4766845703126	-1085.16845703125	-296.9355163574219	251.1948242187501	-1164.692138671875	-275.2892150878907	243.1340026855469	-1124.905517578125	-278.3041381835938	160.2036743164063	-1105.220703125	-326.4638671875001	83.43084716796876	-1169.4951171875	-306.0218811035157	81.02989959716798	-1086.89892578125	-377.7612304687501	55.80126571655275	-1137.408935546875	-188.1304168701172	53.34083938598634	-1105.308349609375	-175.0593719482422	53.83630752563478	-1152.185546875	-213.9591827392579	34.45816802978516	-1203.21875	-335.5680236816407	709.0244140625001	-748.1984863281251	-301.9946594238282	651.8644409179689	-738.7255859375001	-269.6752014160157	653.0618896484376	-736.6051635742189	-331.9604187011719	574.6375122070314	-748.0736694335939	-331.8485107421876	461.3179321289064	-752.5842285156251	-301.2197875976563	438.8120727539064	-896.1396484375002	-287.8638305664063	307.0737915039063	-772.4049072265627	-357.2264404296876	236.3761291503907	-720.1580810546876	-313.0824584960938	232.8390808105469	-735.6916503906251	-301.3090820312501	179.7869873046875	-760.1136474609376	-372.4515075683594	83.26784515380861	-733.2699584960939	-334.0463256835938	83.70864868164064	-807.3082275390627	-412.2145080566407	53.49967193603517	-771.7706298828127	-214.443832397461	52.27524948120119	-767.2822265625001	-220.4343566894532	57.64997863769533	-716.9044799804689	-262.2348022460938	34.28105163574219	-674.8306274414064	
4	0.015	-164.6222381591797	1539.804321289063	-938.8756103515627	-317.0866699218751	1477.931640625	-1021.8544921875	-285.9867858886719	1493.404296875	-873.2783203125002	-359.1817321777344	1365.612670898438	-973.4470825195315	-364.5060119628907	1059.309448242188	-961.7661743164065	-211.5632629394532	1311.023559570313	-952.5213623046877	-253.2485656738282	1349.348022460938	-1101.533447265625	-296.9361267089844	1215.799072265625	-1229.524047851563	-261.3992309570313	1180.720458984375	-1228.006469726563	-305.1680603027344	1154.385498046875	-1261.444213867188	-305.0692749023438	1098.455322265625	-1274.244384765625	-363.1129150390626	1087.264526367188	-1239.951293945313	-185.7028198242188	901.652282714844	-1220.2353515625	-219.5383300781251	918.5660400390627	-1161.479370117188	-190.0963745117188	863.1158447265627	-1132.407104492188	-274.9402160644532	1350.002685546875	-807.3684692382815	-323.2601623535157	1234.380126953125	-691.7327880859376	-282.1633605957032	1207.091064453125	-686.7659912109376	-319.8882446289063	1176.290283203125	-652.8000488281251	-310.6364746093751	1108.567504882813	-627.8950805664064	-365.5851135253907	1076.79345703125	-671.8218994140626	-219.9769134521485	930.2263183593752	-740.0532836914064	-179.3356323242188	920.4567871093752	-687.9493408203126	-190.6906127929688	886.0029296875002	-778.0838623046877	-173.3200073242188	872.018981933594	-1078.720336914063	-190.1772766113282	880.6762695312502	-811.0547485351565	-367.6904602050782	976.423767089844	-962.4820556640627	-386.3031616210939	949.5075683593752	-988.2747192382815	-390.8873596191407	953.6462402343752	-933.950866699219	-267.6699829101563	745.8435058593751	-1158.62548828125	-248.0809173583985	663.9346923828126	-1158.60595703125	-204.3655395507813	662.0998535156251	-1139.160888671875	-284.0385131835938	616.3947143554689	-1158.2080078125	-342.6059570312501	468.1936950683595	-1143.686767578125	-339.4637145996094	422.2579650878907	-997.454528808594	-277.9152526855469	284.4519653320313	-1085.189331054688	-297.0037841796876	251.1164855957032	-1164.688842773438	-275.3577880859376	243.0955810546876	-1124.868408203125	-278.3629455566407	160.1883697509766	-1105.222290039063	-326.4879760742188	83.4621047973633	-1169.48828125	-305.9965820312501	80.99190521240236	-1086.914184570313	-377.7615051269532	55.80160140991212	-1137.408813476563	-188.174545288086	53.34498596191408	-1105.28076171875	-175.0484008789063	53.877742767334	-1152.162231445313	-214.5960693359376	34.83136749267579	-1203.263549804688	-335.5784912109376	708.9849853515626	-748.1921386718751	-302.0128479003907	651.8713989257814	-738.6979370117189	-269.7322692871094	653.0691528320314	-736.5687255859376	-331.9951782226563	574.6602172851564	-748.0692138671876	-331.8966979980469	461.3372192382814	-752.5574951171876	-301.2198181152344	438.8121032714845	-896.1396484375002	-287.8515930175782	307.0429077148438	-772.3731689453127	-357.2317504882813	236.3531036376954	-720.1566772460939	-313.1062927246094	232.809555053711	-735.7202148437501	-301.2966308593751	179.8191070556641	-760.0675048828126	-372.4523925781251	83.27930450439455	-733.2306518554689	-333.2128906250001	83.27848052978517	-807.0687255859377	-412.2354736328126	53.51586151123048	-771.8415527343752	-213.9688262939454	52.66179275512697	-767.0437011718751	-220.2948608398438	57.6075782775879	-716.8555908203126	-262.2152709960938	34.24519729614259	-674.8353271484376	
